<?xml version="1.0" standalone="no"?>
<!DOCTYPE svg PUBLIC "-//W3C//DTD SVG 20010904//EN"
 "http://www.w3.org/TR/2001/REC-SVG-20010904/DTD/svg10.dtd">
<svg version="1.0" xmlns="http://www.w3.org/2000/svg"
 width="260.000000pt" height="260.000000pt" viewBox="0 0 260.000000 260.000000"
 preserveAspectRatio="xMidYMid meet">
<metadata>
Created by potrace 1.11, written by Peter Selinger 2001-2013
</metadata>
<g transform="translate(0.000000,260.000000) scale(0.100000,-0.100000)"
fill="#000000" stroke="none">
<path d="M1255 2558 c-31 -17 -33 -25 -22 -84 8 -48 7 -57 -8 -68 -12 -9 -14
-15 -7 -20 8 -4 8 -15 2 -31 -7 -19 -6 -23 5 -19 12 5 14 -2 9 -37 -8 -57 -3
-53 -79 -64 -16 -2 -48 -8 -70 -12 -22 -4 -44 -8 -50 -9 -5 0 -17 -3 -25 -6
-8 -3 -35 -11 -60 -18 -77 -20 -249 -90 -388 -156 -73 -35 -136 -64 -140 -64
-5 0 -26 8 -47 19 -48 23 -74 17 -90 -23 -13 -28 -12 -33 9 -52 13 -12 31 -24
42 -26 10 -2 18 -10 16 -17 -1 -7 2 -10 8 -6 6 3 8 10 6 14 -3 4 1 8 9 8 8 0
12 -4 9 -9 -3 -4 -1 -8 5 -8 6 0 8 -7 5 -15 -3 -8 -2 -20 3 -27 11 -18 10 -61
-2 -70 -6 -5 -5 -8 2 -8 15 0 35 35 26 44 -3 3 -1 6 5 6 7 0 19 -15 26 -32 8
-18 22 -50 31 -72 10 -21 19 -46 20 -55 2 -9 4 -17 5 -18 2 -2 3 -6 5 -10 1
-5 8 -21 15 -38 7 -16 14 -36 16 -43 1 -8 6 -21 10 -30 4 -9 8 -19 9 -22 7
-20 27 -69 36 -87 6 -11 8 -26 5 -32 -4 -6 -3 -11 3 -11 6 0 14 -12 17 -27 4
-16 12 -37 18 -48 5 -11 11 -22 12 -25 0 -3 4 -14 8 -25 23 -60 20 -52 30 -88
8 -26 36 -39 36 -16 0 5 -4 7 -10 4 -5 -3 -11 1 -11 9 -2 24 -4 29 -16 51 -6
11 -11 23 -12 28 0 4 -8 23 -16 43 -8 20 -12 40 -9 45 3 5 0 9 -5 9 -6 0 -10
3 -9 8 1 8 -3 18 -39 101 -12 29 -21 57 -18 61 3 5 1 10 -5 12 -5 1 -11 12
-13 23 -2 11 -9 33 -16 48 -6 16 -9 33 -6 38 4 5 0 6 -8 3 -9 -3 -13 2 -12 18
1 13 -2 26 -7 29 -6 4 -11 18 -11 33 -1 14 -7 26 -14 26 -6 0 -9 9 -6 20 3 11
1 20 -4 20 -5 0 -10 6 -10 13 0 6 -4 20 -8 29 -5 12 -2 20 9 24 9 3 13 10 10
15 -3 5 1 9 8 9 8 0 6 5 -5 11 -17 10 -15 29 4 29 6 0 7 -4 4 -10 -3 -5 -1
-10 4 -10 6 0 11 9 11 20 0 11 5 20 11 20 5 0 7 -4 4 -10 -10 -17 7 -11 20 6
10 14 15 15 36 4 21 -12 23 -12 11 2 -10 13 -10 18 -1 24 8 4 9 3 5 -4 -4 -7
-1 -12 9 -12 9 0 14 4 11 9 -6 10 24 25 32 16 3 -3 0 -5 -6 -5 -7 0 -12 -4
-12 -8 0 -5 7 -9 15 -9 8 0 12 3 10 7 -2 3 0 12 6 20 7 13 9 13 9 0 0 -13 1
-13 10 0 6 10 10 11 10 3 0 -7 4 -13 10 -13 5 0 7 7 3 15 -3 9 -2 15 3 14 5
-1 12 0 17 1 4 1 12 4 17 5 6 1 12 4 15 5 3 1 10 4 15 5 6 1 11 4 13 5 8 9 86
15 107 8 8 -3 12 -3 7 -1 -4 3 -4 9 -1 14 3 6 12 5 22 -3 12 -10 14 -10 8 0
-7 12 -5 13 44 17 14 2 33 6 43 10 12 5 17 2 17 -11 1 -18 1 -18 11 -1 7 12
17 16 31 11 13 -4 18 -2 14 4 -4 7 1 9 14 7 11 -2 22 1 25 6 4 5 12 6 18 2 19
-12 39 -12 61 -2 21 10 21 10 2 -5 -23 -18 -14 -21 16 -5 15 8 19 8 14 0 -4
-6 -3 -11 2 -11 13 0 12 16 15 -472 l2 -447 -22 -6 c-24 -6 -31 -29 -13 -40 6
-3 10 -11 10 -16 0 -6 -3 -8 -7 -6 -8 5 -13 -21 -15 -68 -1 -29 9 -95 21 -133
5 -18 10 -33 10 -35 0 -1 4 -15 10 -30 6 -16 8 -33 5 -39 -4 -7 -2 -8 4 -4 27
16 10 -32 -27 -76 l-38 -47 1 -116 c1 -129 6 -120 -79 -131 -71 -9 -94 -20
-105 -49 -6 -15 -14 -24 -19 -21 -5 3 -41 -10 -81 -30 -54 -28 -75 -44 -85
-67 -11 -27 -11 -34 4 -53 9 -13 26 -28 39 -35 12 -7 22 -18 22 -25 0 -6 7
-15 16 -18 26 -10 29 -7 8 9 -18 14 -18 14 4 8 12 -3 22 -9 22 -14 0 -5 7 -6
15 -3 9 4 18 -1 21 -11 5 -13 9 -14 15 -3 7 10 9 10 9 1 0 -7 5 -13 11 -13 5
0 7 6 3 13 -6 8 -3 8 9 -1 9 -8 21 -11 27 -7 5 3 13 -1 16 -9 3 -9 10 -13 15
-10 5 3 6 10 3 16 -5 7 -2 8 7 2 8 -5 23 -10 34 -10 41 -3 46 -4 42 -11 -5 -9
77 -7 99 1 7 3 16 1 20 -5 4 -6 10 -7 17 0 7 5 30 6 56 1 25 -4 55 -4 69 1 29
11 35 11 28 0 -8 -12 35 -2 53 13 11 8 13 8 7 -2 -5 -9 -1 -11 16 -8 13 3 27
5 31 5 5 1 6 5 3 10 -3 4 7 7 22 5 14 -1 29 2 33 7 9 14 48 19 55 7 5 -7 2 -8
-6 -3 -9 5 -11 4 -6 -4 6 -9 11 -9 22 0 17 14 18 22 2 14 -7 -4 -4 1 6 9 11 9
30 14 43 12 14 -3 21 -1 17 5 -9 15 15 38 37 34 10 -2 19 0 19 6 0 5 -4 9 -9
9 -5 0 -5 15 -1 35 4 19 4 33 0 30 -5 -3 -12 1 -17 9 -14 25 -105 68 -171 82
-18 3 -28 14 -14 14 23 0 -1 29 -31 39 -37 11 -118 26 -129 23 -5 -1 -8 7 -8
19 0 11 4 18 8 15 5 -3 9 1 9 9 0 8 -4 12 -8 9 -4 -2 -8 36 -8 85 0 92 -2 112
-11 121 -27 26 -59 74 -54 81 3 5 -1 9 -8 9 -10 0 -9 3 2 9 8 6 18 7 22 5 4
-3 5 2 1 11 -5 13 -7 14 -14 3 -6 -9 -9 -9 -9 -1 0 6 5 15 10 18 6 4 8 11 4
16 -3 6 4 13 17 16 22 6 22 7 3 14 -18 7 -18 8 0 8 15 1 16 4 7 15 -8 10 -9
16 -1 21 5 3 10 1 10 -4 0 -6 5 -11 10 -11 6 0 3 11 -6 25 -9 15 -12 25 -5 25
6 0 8 7 4 17 -4 9 -2 14 3 11 5 -4 9 9 9 28 0 19 -4 34 -10 34 -5 0 -3 5 5 10
11 7 11 10 2 10 -7 0 -10 5 -7 10 3 6 0 10 -7 10 -8 1 -5 7 7 17 14 11 15 14
3 10 -23 -8 -30 3 -13 20 21 21 19 32 -9 39 -29 7 -43 54 -17 55 10 0 11 2 4
6 -10 3 -13 66 -13 254 0 195 3 248 13 243 9 -5 9 -4 0 7 -9 8 -13 47 -13 114
0 67 4 106 13 114 7 9 7 11 1 8 -7 -4 -15 0 -18 9 -3 8 -2 12 3 9 5 -3 12 -1
16 5 3 5 -2 10 -12 10 -17 1 -17 1 0 14 18 14 24 32 8 21 -6 -3 -7 6 -4 22 3
16 6 36 7 45 0 9 2 15 5 13 2 -3 11 1 20 8 13 10 12 7 -2 -15 -10 -16 -14 -28
-10 -28 5 0 14 9 21 21 11 17 16 19 29 7 9 -7 14 -8 10 -2 -4 6 8 10 33 10 21
0 36 -4 34 -8 -3 -4 0 -8 5 -8 6 0 11 6 11 13 0 8 3 8 8 1 4 -6 25 -10 47 -10
22 1 46 -3 53 -8 6 -4 12 -5 12 -1 0 5 9 0 20 -10 20 -18 21 -18 14 1 -6 15
-5 17 7 8 8 -6 22 -12 32 -13 39 -3 47 -5 47 -11 0 -3 8 -7 18 -8 19 -2 54 -9
62 -13 10 -4 25 -7 50 -8 18 -1 21 -4 12 -10 -10 -6 -9 -10 7 -14 14 -3 19 -1
14 6 -4 7 6 2 21 -11 16 -12 32 -19 37 -16 16 10 50 13 44 4 -3 -5 -1 -11 5
-15 5 -3 10 -1 10 5 0 6 5 8 10 5 6 -4 8 -12 4 -18 -3 -7 2 -3 10 7 10 12 16
15 16 7 0 -8 7 -11 18 -9 15 4 18 1 14 -18 -2 -13 0 -30 6 -37 6 -8 6 -20 -1
-37 -15 -36 -16 -50 -6 -50 5 0 9 4 9 9 0 28 21 60 35 55 8 -3 15 -12 15 -18
0 -7 9 -30 19 -52 11 -21 17 -42 14 -46 -2 -5 1 -8 6 -8 6 0 10 -3 10 -7 -1
-5 0 -11 1 -15 1 -5 3 -11 4 -15 1 -5 7 -18 14 -30 7 -13 10 -23 6 -23 -3 0
-2 -6 4 -12 6 -7 11 -16 11 -21 0 -4 8 -23 16 -43 8 -20 12 -40 9 -45 -3 -5 0
-9 6 -9 6 0 8 -4 5 -10 -3 -5 -2 -10 2 -10 9 0 39 -89 35 -103 -1 -5 2 -6 7
-3 7 5 22 -39 20 -60 0 -3 7 -16 15 -30 9 -13 14 -24 10 -24 -4 0 0 -7 7 -16
8 -9 14 -24 14 -32 0 -8 6 -17 13 -20 10 -3 9 6 -4 34 -9 22 -21 56 -26 77 -6
20 -15 37 -20 37 -6 0 -8 7 -5 15 4 8 2 17 -3 20 -6 4 -10 15 -10 26 0 10 -4
19 -8 19 -6 0 -28 60 -36 100 -1 3 -4 10 -8 15 -8 14 -70 173 -72 188 -1 7 -5
17 -9 24 -4 7 -14 30 -22 52 -13 37 -12 42 3 52 16 10 16 10 0 5 -25 -8 -22 8
5 28 12 9 17 14 10 11 -6 -3 -14 -1 -18 5 -3 5 -1 10 4 10 6 0 11 5 11 11 0 5
-5 7 -12 3 -6 -4 -8 -3 -4 4 6 10 36 9 55 -3 5 -3 13 0 17 6 4 7 3 9 -4 5 -6
-3 -13 -2 -16 3 -7 11 13 9 33 -3 11 -7 13 -5 8 6 -7 21 3 31 18 18 8 -7 12
-6 12 3 0 6 3 26 7 43 6 27 3 35 -20 53 -33 26 -57 26 -109 1 -22 -11 -51 -19
-65 -20 -29 0 -105 22 -152 44 -41 20 -235 86 -267 92 -14 3 -28 7 -33 10 -16
10 -193 50 -262 60 -36 4 -48 21 -34 47 8 15 7 18 -3 12 -9 -6 -11 -3 -6 8 4
10 1 17 -6 17 -8 0 -7 4 3 9 8 6 18 7 22 5 4 -3 3 7 -2 21 -13 33 -13 38 0 30
6 -3 7 1 4 9 -3 9 -10 16 -14 16 -16 0 -19 30 -4 45 9 8 11 15 5 15 -6 0 -11
5 -11 11 0 5 4 8 8 5 5 -3 9 1 9 9 0 8 -5 12 -10 8 -5 -3 -4 4 2 15 9 18 6 22
-29 36 -47 19 -87 20 -115 4z m749 -620 c-3 -4 -11 -5 -19 -1 -21 7 -19 12 4
10 11 0 18 -5 15 -9z m181 -49 c10 -15 -1 -23 -20 -15 -9 3 -13 10 -10 16 8
13 22 13 30 -1z m-1731 -50 c-3 -5 -11 -9 -19 -9 -11 0 -12 7 -6 39 1 2 8 -2
16 -9 8 -7 12 -16 9 -21z"/>
<path d="M1126 2032 c-3 -6 -1 -14 5 -17 15 -10 25 3 12 16 -7 7 -13 7 -17 1z"/>
<path d="M1476 2032 c-3 -4 4 -9 15 -9 23 -2 25 3 4 10 -8 4 -16 3 -19 -1z"/>
<path d="M1576 2018 c3 -5 10 -6 15 -3 13 9 11 12 -6 12 -8 0 -12 -4 -9 -9z"/>
<path d="M1630 2020 c0 -5 5 -10 11 -10 5 0 7 5 4 10 -3 6 -8 10 -11 10 -2 0
-4 -4 -4 -10z"/>
<path d="M1078 2003 c7 -3 16 -2 19 1 4 3 -2 6 -13 5 -11 0 -14 -3 -6 -6z"/>
<path d="M1750 1990 c0 -5 5 -10 11 -10 5 0 7 5 4 10 -3 6 -8 10 -11 10 -2 0
-4 -4 -4 -10z"/>
<path d="M828 1973 c-9 -11 -13 -11 -19 -2 -6 10 -11 10 -22 1 -7 -7 -18 -8
-23 -4 -4 4 -2 -1 5 -10 14 -19 22 -23 20 -10 -3 19 2 24 15 13 10 -9 16 -8
26 4 7 8 16 13 20 10 5 -3 11 -2 14 3 9 14 -24 10 -36 -5z"/>
<path d="M2350 1980 c0 -5 5 -10 11 -10 5 0 7 5 4 10 -3 6 -8 10 -11 10 -2 0
-4 -4 -4 -10z"/>
<path d="M1876 1962 c-3 -5 1 -9 9 -9 8 0 12 4 9 9 -3 4 -7 8 -9 8 -2 0 -6 -4
-9 -8z"/>
<path d="M725 1949 c-4 -6 -5 -12 -2 -15 2 -3 7 2 10 11 7 17 1 20 -8 4z"/>
<path d="M2103 1730 c-6 -16 -7 -30 -2 -30 5 0 9 5 9 11 0 5 3 8 8 6 4 -3 7 6
7 19 0 32 -8 30 -22 -6z"/>
<path d="M379 1723 c-1 -10 -1 -21 0 -25 0 -5 -3 -8 -9 -8 -5 0 -10 -7 -10
-15 0 -9 6 -12 15 -8 9 3 14 8 11 10 -2 2 0 18 4 34 5 17 5 29 -1 29 -5 0 -10
-8 -10 -17z"/>
<path d="M2078 1665 c-3 -13 -1 -22 3 -19 5 3 9 11 9 19 0 7 6 16 13 18 7 4 6
6 -4 6 -10 1 -19 -9 -21 -24z"/>
<path d="M342 1618 c-6 -17 -9 -34 -6 -37 7 -8 24 21 18 31 -3 4 -1 8 4 8 5 0
9 7 9 15 0 25 -12 17 -25 -17z"/>
<path d="M2054 1603 c-4 -16 -14 -44 -23 -63 -8 -19 -15 -37 -16 -40 -1 -3 -4
-12 -8 -20 -3 -8 -13 -37 -23 -65 -10 -27 -24 -61 -31 -75 -7 -14 -13 -33 -13
-42 0 -9 -4 -20 -10 -23 -13 -8 -13 -25 0 -25 5 0 13 12 17 28 4 15 8 29 9 32
1 3 5 15 9 28 4 12 12 22 18 22 6 0 8 3 4 6 -8 8 13 65 23 59 4 -2 5 7 2 20
-2 14 0 25 6 25 5 0 12 12 15 28 12 60 32 102 46 97 11 -4 11 -2 3 8 -7 8 -9
17 -5 20 3 4 1 7 -5 7 -6 0 -15 -12 -18 -27z"/>
<path d="M303 1519 c-26 -57 -28 -69 -12 -69 5 0 7 5 4 10 -3 6 -2 10 2 10 5
0 9 10 10 22 1 11 8 25 15 29 7 5 9 9 5 9 -4 0 -3 9 3 20 6 11 7 20 3 20 -4 0
-18 -23 -30 -51z"/>
<path d="M233 1335 c-22 -58 -37 -105 -32 -105 5 0 9 7 9 16 0 9 5 12 13 8 6
-4 9 -4 5 0 -7 8 21 98 43 138 16 28 20 48 10 48 -4 0 -26 -47 -48 -105z"/>
<path d="M1901 1203 c-8 -21 -16 -44 -19 -51 -3 -8 1 -10 11 -6 9 3 13 12 10
20 -3 8 0 14 7 14 6 0 8 4 5 10 -3 5 -1 19 5 30 6 11 7 20 2 20 -4 0 -14 -17
-21 -37z"/>
<path d="M182 1214 c3 -3 -10 -44 -29 -91 -19 -47 -32 -88 -29 -91 9 -8 17 3
19 27 1 11 5 21 9 21 4 0 7 3 6 8 -1 4 4 21 11 37 7 17 14 35 15 40 1 6 8 20
14 33 11 19 10 22 -4 22 -10 0 -15 -3 -12 -6z"/>
<path d="M2435 1160 c-3 -5 -1 -10 4 -10 6 0 11 -8 11 -18 0 -10 6 -26 14 -37
7 -11 12 -27 11 -36 -2 -9 3 -16 10 -16 14 0 12 12 -13 67 -8 19 -15 41 -15
48 0 14 -13 16 -22 2z"/>
<path d="M1865 1120 c-3 -5 -4 -10 0 -10 3 0 1 -9 -5 -20 -6 -11 -7 -20 -3
-20 5 0 14 14 20 30 10 28 2 42 -12 20z"/>
<path d="M713 1088 c3 -7 12 -33 22 -58 9 -25 21 -54 25 -65 5 -11 16 -36 24
-57 l14 -36 -33 14 c-128 53 -378 63 -590 23 -33 -6 -64 -14 -70 -19 -5 -4
-18 -6 -28 -5 -11 2 -21 -5 -27 -20 -5 -13 -14 -26 -19 -30 -16 -9 -13 -51 4
-65 8 -7 15 -18 15 -24 0 -7 10 -12 21 -13 12 -1 27 -7 33 -14 8 -8 8 -10 0
-6 -6 3 -11 0 -11 -8 0 -10 4 -12 12 -5 10 8 52 8 63 -1 3 -2 19 -6 33 -8 5 0
7 -7 3 -13 -5 -9 -2 -9 9 1 17 13 24 4 10 -15 -5 -5 -1 -3 7 6 13 14 30 17 45
10 5 -3 32 -6 61 -9 9 -1 12 -6 8 -13 -6 -10 -4 -10 7 0 14 13 63 17 55 4 -2
-4 8 -8 24 -7 23 0 26 2 17 14 -10 12 -9 13 7 4 10 -6 33 -7 50 -4 17 4 46 6
64 5 17 0 32 3 32 8 0 5 5 6 10 3 16 -10 0 -27 -19 -20 -11 4 -13 3 -5 -5 14
-14 44 -2 44 19 1 14 3 13 15 -3 9 -12 15 -15 15 -7 0 10 3 11 13 2 10 -8 14
-7 14 3 0 8 -8 13 -19 11 -10 -2 -16 0 -13 5 6 9 24 8 43 -3 7 -5 12 -3 12 7
0 9 5 16 11 16 5 0 7 -4 4 -10 -3 -6 1 -7 9 -4 9 3 13 11 10 16 -4 6 3 5 15
-1 16 -9 19 -9 15 2 -2 7 7 19 21 27 47 25 63 77 34 109 -10 11 -20 31 -21 45
-1 13 -6 22 -10 20 -7 -5 -12 18 -9 39 0 4 -3 7 -9 7 -6 0 -9 3 -8 8 1 4 -6
24 -15 46 -9 21 -14 42 -11 47 3 5 0 9 -5 9 -6 0 -11 7 -11 15 0 8 -5 15 -11
15 -6 0 -9 -6 -6 -12z"/>
<path d="M1835 1028 c-4 -18 -11 -37 -15 -43 -4 -5 -11 -21 -15 -35 -4 -14
-18 -40 -30 -58 -13 -19 -22 -39 -20 -45 10 -41 19 -56 28 -50 6 4 8 0 4 -10
-4 -11 -2 -14 7 -11 8 3 17 0 21 -5 3 -6 11 -8 17 -5 7 5 9 1 5 -9 -5 -14 -2
-15 19 -7 18 7 23 7 18 -2 -5 -7 0 -9 14 -6 12 4 25 1 29 -4 4 -7 1 -8 -8 -4
-8 4 -5 0 6 -9 18 -14 21 -14 31 0 10 13 13 13 17 2 3 -8 0 -21 -6 -28 -10
-11 -9 -11 5 0 10 7 15 17 12 22 -3 5 0 9 5 9 6 0 11 -4 11 -9 0 -5 7 -12 16
-15 8 -3 13 -2 10 3 -3 5 1 11 9 15 8 3 17 1 20 -4 3 -4 16 -7 30 -5 15 1 29
-4 35 -14 7 -12 9 -12 10 -2 0 10 9 12 35 8 23 -4 33 -2 29 5 -4 7 0 7 13 0
13 -7 25 -7 38 1 18 9 19 9 6 -6 -12 -15 -12 -17 3 -11 9 3 16 11 16 18 0 6 5
4 10 -4 6 -10 10 -11 10 -2 0 6 5 12 11 12 5 0 7 -6 3 -12 -6 -10 -4 -10 7 0
7 6 18 12 23 12 6 0 5 -4 -3 -9 -8 -5 -9 -11 -3 -15 6 -3 13 3 17 14 4 11 10
18 15 15 5 -3 19 -1 32 4 13 4 33 5 46 0 23 -9 32 5 10 14 -8 3 -6 6 5 6 9 1
17 -4 17 -10 0 -5 5 -7 10 -4 6 4 8 11 5 16 -5 7 18 14 28 7 7 -5 47 25 42 32
-4 6 1 7 11 3 13 -5 16 -3 11 10 -3 9 -2 19 2 22 5 2 11 14 14 25 3 11 2 18
-2 16 -4 -3 -13 10 -20 27 -7 18 -17 40 -22 49 -5 10 -9 25 -9 33 0 8 -5 15
-11 15 -5 0 -8 4 -5 8 6 11 -11 38 -19 30 -4 -4 4 -29 18 -57 28 -55 33 -53
-63 -27 -81 23 -142 29 -270 30 -172 1 -315 -20 -352 -52 -24 -20 -23 -3 1 51
27 61 34 87 22 87 -5 0 -13 -15 -16 -32z"/>
<path d="M105 1004 c-4 -10 -13 -34 -21 -52 -15 -35 -19 -70 -6 -58 4 4 7 11
7 14 1 4 9 28 19 55 11 26 16 50 13 54 -4 3 -9 -3 -12 -13z"/>
<path d="M2577 809 c7 -7 15 -10 18 -7 3 3 -2 9 -12 12 -14 6 -15 5 -6 -5z"/>
<path d="M845 780 c-3 -6 1 -7 9 -4 18 7 21 14 7 14 -6 0 -13 -4 -16 -10z"/>
<path d="M1386 767 c3 -10 9 -15 12 -12 3 3 0 11 -7 18 -10 9 -11 8 -5 -6z"/>
<path d="M825 749 c-11 -16 -1 -19 13 -3 7 8 8 14 3 14 -5 0 -13 -5 -16 -11z"/>
<path d="M2495 749 c-4 -6 -4 -13 -1 -16 3 -4 6 -1 6 6 0 7 5 9 12 5 7 -4 8
-3 4 4 -9 15 -13 15 -21 1z"/>
<path d="M797 733 c-4 -3 -7 -11 -7 -17 0 -6 5 -5 12 2 6 6 9 14 7 17 -3 3 -9
2 -12 -2z"/>
<path d="M1870 726 c0 -2 7 -7 16 -10 8 -3 12 -2 9 4 -6 10 -25 14 -25 6z"/>
<path d="M2033 706 c0 -15 22 -15 34 0 4 5 4 6 -1 2 -5 -4 -14 -3 -21 2 -8 7
-12 5 -12 -4z"/>
<path d="M250 665 c-11 -13 -10 -14 4 -9 9 3 16 10 16 15 0 13 -6 11 -20 -6z"/>
<path d="M294 662 c4 -3 14 -7 22 -8 9 -1 13 0 10 4 -4 3 -14 7 -22 8 -9 1
-13 0 -10 -4z"/>
<path d="M525 659 c-3 -4 2 -6 10 -5 21 3 28 13 10 13 -9 0 -18 -4 -20 -8z"/>
<path d="M375 649 c-4 -6 -5 -12 -2 -15 2 -3 7 2 10 11 7 17 1 20 -8 4z"/>
<path d="M1811 154 c0 -11 3 -14 6 -6 3 7 2 16 -1 19 -3 4 -6 -2 -5 -13z"/>
<path d="M1765 100 c-3 -5 -1 -10 4 -10 6 0 11 5 11 10 0 6 -2 10 -4 10 -3 0
-8 -4 -11 -10z"/>
<path d="M1710 62 c0 -5 7 -9 15 -9 8 0 12 4 9 9 -3 4 -9 8 -15 8 -5 0 -9 -4
-9 -8z"/>
<path d="M1635 40 c-3 -5 -1 -10 4 -10 6 0 11 5 11 10 0 6 -2 10 -4 10 -3 0
-8 -4 -11 -10z"/>
<path d="M1040 20 c-9 -6 -10 -10 -3 -10 6 0 15 5 18 10 8 12 4 12 -15 0z"/>
</g>
</svg>
